<svg xmlns="http://www.w3.org/2000/svg" width="14" height="13.982" viewBox="0 0 14 13.982">
  <path id="email" d="M10.759,8.987c0,.613.174.857.63.857,1.016,0,1.663-1.294,1.663-3.447,0-3.29-2.4-4.865-5.391-4.865A5.658,5.658,0,0,0,1.781,7.5c0,3.727,2.45,5.757,6.212,5.757a9.636,9.636,0,0,0,3.447-.577l.281,1.172a12.478,12.478,0,0,1-3.746.542C3.041,14.393.4,11.681.4,7.5.4,3.281,3.461.411,7.679.411c4.392,0,6.719,2.625,6.719,5.845,0,2.73-.857,4.812-3.552,4.812-1.226,0-2.03-.49-2.135-1.576a2.04,2.04,0,0,1-2.293,1.576c-1.523,0-2.8-1.173-2.8-3.535,0-2.38,1.121-3.85,3.133-3.85A2.013,2.013,0,0,1,8.78,4.768l.508-.927h1.47V8.987h0ZM8.608,6.677A1.288,1.288,0,0,0,7.294,5.312c-.648,0-1.364.524-1.364,2.065,0,1.225.543,1.908,1.364,1.908A1.281,1.281,0,0,0,8.608,7.9Z" transform="translate(-0.398 -0.411)" fill="#d5d5d5"/>
</svg>
