<svg xmlns="http://www.w3.org/2000/svg" width="10.667" height="14" viewBox="0 0 10.667 14">
  <g id="lock" transform="translate(-2.333 -0.583)">
    <path id="Path_11668" data-name="Path 11668" d="M17.333,6.667h-.667V5.333a3.333,3.333,0,1,0-6.667,0V6.667H9.333A1.333,1.333,0,0,0,8,8v6.667A1.333,1.333,0,0,0,9.333,16h8a1.333,1.333,0,0,0,1.333-1.333V8A1.333,1.333,0,0,0,17.333,6.667Zm-4,6a1.333,1.333,0,1,1,1.333-1.333A1.333,1.333,0,0,1,13.333,12.667Zm2.067-6H11.267V5.333a2.067,2.067,0,0,1,4.133,0Z" transform="translate(-5.667 -1.417)" fill="#d5d5d5"/>
  </g>
</svg>
